<svg xmlns="http://www.w3.org/2000/svg" xmlns:xlink="http://www.w3.org/1999/xlink" width="600" zoomAndPan="magnify" viewBox="55 130 340 168" height="600" preserveAspectRatio="xMidYMid meet" version="1.0"><defs><g/><clipPath id="2eff9353f6"><rect x="0" width="248" y="0" height="100"/></clipPath><clipPath id="de64357d3d"><path d="M 3 12 L 52 12 L 52 79 L 3 79 Z M 3 12 " clip-rule="nonzero"/></clipPath><clipPath id="6068947bf4"><path d="M 2.394531 60.265625 L 25.839844 3.015625 L 74.128906 22.789062 L 50.683594 80.039062 Z M 2.394531 60.265625 " clip-rule="nonzero"/></clipPath><clipPath id="bbf82ff9d0"><path d="M 2.394531 60.265625 L 25.839844 3.015625 L 74.128906 22.789062 L 50.683594 80.039062 Z M 2.394531 60.265625 " clip-rule="nonzero"/></clipPath><clipPath id="13a193e96f"><path d="M 19 28 L 46 28 L 46 64 L 19 64 Z M 19 28 " clip-rule="nonzero"/></clipPath><clipPath id="63fb6f6c13"><path d="M 19.214844 53.546875 L 31.445312 23.679688 L 56.835938 34.074219 L 44.601562 63.945312 Z M 19.214844 53.546875 " clip-rule="nonzero"/></clipPath><clipPath id="9d3d1e2321"><path d="M 19.214844 53.546875 L 31.445312 23.679688 L 56.835938 34.074219 L 44.601562 63.945312 Z M 19.214844 53.546875 " clip-rule="nonzero"/></clipPath><clipPath id="113dc631bf"><rect x="0" width="76" y="0" height="82"/></clipPath><clipPath id="99219b570c"><rect x="0" width="329" y="0" height="101"/></clipPath></defs><g transform="matrix(1, 0, 0, 1, 96, 141)"><g clip-path="url(#2eff9353f6)"><g fill="#ffffff" fill-opacity="1"><g transform="translate(1.246396, 70.976362)"><g><path d="M 4.78125 -65.6875 L 28.265625 -65.6875 C 34.585938 -65.6875 39.738281 -64 43.71875 -60.625 C 47.695312 -57.257812 49.6875 -52.445312 49.6875 -46.1875 C 49.6875 -41.351562 48.476562 -37.300781 46.0625 -34.03125 C 43.644531 -30.769531 40.367188 -28.476562 36.234375 -27.15625 L 58.84375 0 L 39.8125 0 L 19.75 -25.953125 L 19.75 0 L 4.78125 0 Z M 19.75 -36.546875 L 21.5 -36.546875 C 22.875 -36.546875 24.039062 -36.570312 25 -36.625 C 25.957031 -36.675781 27.046875 -36.859375 28.265625 -37.171875 C 29.484375 -37.492188 30.460938 -37.945312 31.203125 -38.53125 C 31.953125 -39.125 32.59375 -39.976562 33.125 -41.09375 C 33.65625 -42.207031 33.921875 -43.554688 33.921875 -45.140625 C 33.921875 -46.734375 33.65625 -48.085938 33.125 -49.203125 C 32.59375 -50.316406 31.953125 -51.164062 31.203125 -51.75 C 30.460938 -52.332031 29.484375 -52.785156 28.265625 -53.109375 C 27.046875 -53.429688 25.957031 -53.617188 25 -53.671875 C 24.039062 -53.722656 22.875 -53.75 21.5 -53.75 L 19.75 -53.75 Z M 19.75 -36.546875 "/></g></g></g><g fill="#ffffff" fill-opacity="1"><g transform="translate(56.826364, 70.976362)"><g/></g></g><g fill="#ffffff" fill-opacity="1"><g transform="translate(77.130437, 70.976362)"><g/></g></g><g fill="#ffffff" fill-opacity="1"><g transform="translate(97.43451, 70.976362)"><g/></g></g><g fill="#ffffff" fill-opacity="1"><g transform="translate(117.739397, 70.976362)"><g><path d="M 19.75 -40.765625 L 19.75 0 L 4.78125 0 L 4.78125 -65.6875 L 19.75 -65.6875 L 45.859375 -24.921875 L 46.015625 -24.921875 L 46.015625 -65.6875 L 61 -65.6875 L 61 0 L 46.015625 0 L 19.90625 -40.765625 Z M 19.75 -40.765625 "/></g></g></g><g fill="#ffffff" fill-opacity="1"><g transform="translate(182.075639, 70.976362)"><g><path d="M 64.578125 0 L 43.953125 0 L 19.75 -27.875 L 19.75 0 L 4.78125 0 L 4.78125 -65.6875 L 19.75 -65.6875 L 19.75 -38.859375 L 42.28125 -65.6875 L 60.4375 -65.6875 L 34 -34.5625 Z M 64.578125 0 "/></g></g></g></g></g><g transform="matrix(1, 0, 0, 1, 152, 135)"><g clip-path="url(#113dc631bf)"><g clip-path="url(#de64357d3d)"><g clip-path="url(#6068947bf4)"><g clip-path="url(#bbf82ff9d0)"><path fill="#ffffff" d="M 46.476562 13.472656 L 4.628906 56.089844 C 4.167969 56.558594 3.882812 57.113281 3.765625 57.761719 C 3.652344 58.40625 3.726562 59.03125 3.996094 59.628906 C 4.265625 60.226562 4.679688 60.699219 5.238281 61.042969 C 5.800781 61.386719 6.40625 61.539062 7.0625 61.507812 L 27.824219 60.464844 C 28.664062 60.421875 29.476562 60.5625 30.257812 60.878906 C 31.035156 61.199219 31.710938 61.671875 32.28125 62.289062 L 46.347656 77.59375 C 46.792969 78.078125 47.335938 78.394531 47.972656 78.542969 C 48.613281 78.691406 49.238281 78.644531 49.851562 78.40625 C 50.464844 78.167969 50.957031 77.777344 51.324219 77.238281 C 51.695312 76.695312 51.882812 76.09375 51.882812 75.4375 L 51.941406 15.710938 C 51.941406 15.0625 51.761719 14.46875 51.402344 13.929688 C 51.042969 13.394531 50.5625 13 49.960938 12.757812 C 49.363281 12.511719 48.746094 12.453125 48.109375 12.582031 C 47.476562 12.714844 46.933594 13.011719 46.476562 13.472656 Z M 46.476562 13.472656 " fill-opacity="1" fill-rule="nonzero"/></g></g></g><g clip-path="url(#13a193e96f)"><g clip-path="url(#63fb6f6c13)"><g clip-path="url(#9d3d1e2321)"><path fill="#ffffff" d="M 42.242188 29.101562 L 20.378906 51.367188 C 20.140625 51.609375 19.988281 51.902344 19.929688 52.238281 C 19.867188 52.578125 19.910156 52.902344 20.050781 53.214844 C 20.191406 53.527344 20.40625 53.773438 20.699219 53.953125 C 20.992188 54.132812 21.308594 54.214844 21.652344 54.199219 L 32.496094 53.652344 C 33.421875 53.605469 34.199219 53.925781 34.828125 54.605469 L 42.175781 62.601562 C 42.40625 62.855469 42.691406 63.019531 43.023438 63.097656 C 43.359375 63.175781 43.6875 63.152344 44.007812 63.027344 C 44.324219 62.902344 44.582031 62.699219 44.777344 62.414062 C 44.96875 62.132812 45.066406 61.816406 45.066406 61.476562 L 45.097656 30.269531 C 45.097656 29.933594 45.003906 29.621094 44.816406 29.339844 C 44.628906 29.058594 44.378906 28.855469 44.0625 28.726562 C 43.75 28.597656 43.429688 28.570312 43.097656 28.636719 C 42.765625 28.707031 42.480469 28.859375 42.242188 29.101562 Z M 42.242188 29.101562 " fill-opacity="1" fill-rule="nonzero"/></g></g></g></g></g><g transform="matrix(1, 0, 0, 1, 66, 216)"><g clip-path="url(#99219b570c)"><g fill="#c8f31d" fill-opacity="1"><g transform="translate(0.41288, 71.424057)"><g><path d="M 42.765625 -65.6875 L 42.765625 -52.546875 L 19.75 -52.546875 L 19.75 -39.5 L 41 -39.5 L 41 -26.359375 L 19.75 -26.359375 L 19.75 0 L 4.78125 0 L 4.78125 -65.6875 Z M 42.765625 -65.6875 "/></g></g></g><g fill="#c8f31d" fill-opacity="1"><g transform="translate(44.126462, 71.424057)"><g><path d="M 1.828125 -32.890625 C 1.828125 -42.390625 5.066406 -50.429688 11.546875 -57.015625 C 18.023438 -63.597656 25.828125 -66.890625 34.953125 -66.890625 C 44.140625 -66.890625 51.941406 -63.609375 58.359375 -57.046875 C 64.785156 -50.492188 68 -42.441406 68 -32.890625 C 68 -23.273438 64.835938 -15.191406 58.515625 -8.640625 C 52.203125 -2.085938 44.347656 1.1875 34.953125 1.1875 C 25.347656 1.1875 17.425781 -2.0625 11.1875 -8.5625 C 4.945312 -15.0625 1.828125 -23.171875 1.828125 -32.890625 Z M 18 -32.890625 C 18 -29.429688 18.53125 -26.28125 19.59375 -23.4375 C 20.65625 -20.601562 22.507812 -18.203125 25.15625 -16.234375 C 27.8125 -14.273438 31.078125 -13.296875 34.953125 -13.296875 C 40.523438 -13.296875 44.726562 -15.207031 47.5625 -19.03125 C 50.40625 -22.851562 51.828125 -27.472656 51.828125 -32.890625 C 51.828125 -38.242188 50.378906 -42.84375 47.484375 -46.6875 C 44.597656 -50.539062 40.421875 -52.46875 34.953125 -52.46875 C 29.535156 -52.46875 25.351562 -50.539062 22.40625 -46.6875 C 19.46875 -42.84375 18 -38.242188 18 -32.890625 Z M 18 -32.890625 "/></g></g></g><g fill="#c8f31d" fill-opacity="1"><g transform="translate(112.523538, 71.424057)"><g><path d="M 4.78125 -65.6875 L 28.265625 -65.6875 C 34.585938 -65.6875 39.738281 -64 43.71875 -60.625 C 47.695312 -57.257812 49.6875 -52.445312 49.6875 -46.1875 C 49.6875 -41.351562 48.476562 -37.300781 46.0625 -34.03125 C 43.644531 -30.769531 40.367188 -28.476562 36.234375 -27.15625 L 58.84375 0 L 39.8125 0 L 19.75 -25.953125 L 19.75 0 L 4.78125 0 Z M 19.75 -36.546875 L 21.5 -36.546875 C 22.875 -36.546875 24.039062 -36.570312 25 -36.625 C 25.957031 -36.675781 27.046875 -36.859375 28.265625 -37.171875 C 29.484375 -37.492188 30.460938 -37.945312 31.203125 -38.53125 C 31.953125 -39.125 32.59375 -39.976562 33.125 -41.09375 C 33.65625 -42.207031 33.921875 -43.554688 33.921875 -45.140625 C 33.921875 -46.734375 33.65625 -48.085938 33.125 -49.203125 C 32.59375 -50.316406 31.953125 -51.164062 31.203125 -51.75 C 30.460938 -52.332031 29.484375 -52.785156 28.265625 -53.109375 C 27.046875 -53.429688 25.957031 -53.617188 25 -53.671875 C 24.039062 -53.722656 22.875 -53.75 21.5 -53.75 L 19.75 -53.75 Z M 19.75 -36.546875 "/></g></g></g><g fill="#c8f31d" fill-opacity="1"><g transform="translate(168.101115, 71.424057)"><g><path d="M 42.359375 -65.6875 L 42.359375 -52.546875 L 19.75 -52.546875 L 19.75 -39.5 L 41.40625 -39.5 L 41.40625 -26.359375 L 19.75 -26.359375 L 19.75 -13.140625 L 42.359375 -13.140625 L 42.359375 0 L 4.78125 0 L 4.78125 -65.6875 Z M 42.359375 -65.6875 "/></g></g></g><g fill="#c8f31d" fill-opacity="1"><g transform="translate(212.849818, 71.424057)"><g><path d="M 28.984375 -66.890625 C 32.535156 -66.890625 36.007812 -66.367188 39.40625 -65.328125 C 42.8125 -64.296875 45.335938 -63.273438 46.984375 -62.265625 L 49.375 -60.671875 L 43.3125 -48.734375 C 42.832031 -49.046875 42.164062 -49.453125 41.3125 -49.953125 C 40.46875 -50.460938 38.878906 -51.140625 36.546875 -51.984375 C 34.210938 -52.835938 32.035156 -53.265625 30.015625 -53.265625 C 27.523438 -53.265625 25.601562 -52.734375 24.25 -51.671875 C 22.894531 -50.609375 22.21875 -49.175781 22.21875 -47.375 C 22.21875 -46.46875 22.535156 -45.628906 23.171875 -44.859375 C 23.804688 -44.097656 24.894531 -43.28125 26.4375 -42.40625 C 27.976562 -41.53125 29.332031 -40.828125 30.5 -40.296875 C 31.664062 -39.765625 33.46875 -38.96875 35.90625 -37.90625 C 40.15625 -36.09375 43.78125 -33.632812 46.78125 -30.53125 C 49.78125 -27.425781 51.28125 -23.910156 51.28125 -19.984375 C 51.28125 -16.210938 50.601562 -12.921875 49.25 -10.109375 C 47.894531 -7.296875 46.035156 -5.09375 43.671875 -3.5 C 41.304688 -1.90625 38.691406 -0.726562 35.828125 0.03125 C 32.960938 0.800781 29.859375 1.1875 26.515625 1.1875 C 23.648438 1.1875 20.835938 0.894531 18.078125 0.3125 C 15.316406 -0.269531 13.003906 -1 11.140625 -1.875 C 9.285156 -2.75 7.613281 -3.609375 6.125 -4.453125 C 4.644531 -5.304688 3.554688 -6.023438 2.859375 -6.609375 L 1.828125 -7.484375 L 9.3125 -20.0625 C 9.945312 -19.53125 10.820312 -18.851562 11.9375 -18.03125 C 13.050781 -17.207031 15.03125 -16.101562 17.875 -14.71875 C 20.71875 -13.34375 23.226562 -12.65625 25.40625 -12.65625 C 31.71875 -12.65625 34.875 -14.804688 34.875 -19.109375 C 34.875 -20.015625 34.644531 -20.847656 34.1875 -21.609375 C 33.738281 -22.378906 32.941406 -23.148438 31.796875 -23.921875 C 30.660156 -24.691406 29.65625 -25.300781 28.78125 -25.75 C 27.90625 -26.207031 26.472656 -26.898438 24.484375 -27.828125 C 22.492188 -28.753906 21.019531 -29.457031 20.0625 -29.9375 C 16.082031 -31.90625 13.003906 -34.359375 10.828125 -37.296875 C 8.648438 -40.242188 7.5625 -43.414062 7.5625 -46.8125 C 7.5625 -52.707031 9.738281 -57.523438 14.09375 -61.265625 C 18.445312 -65.015625 23.410156 -66.890625 28.984375 -66.890625 Z M 28.984375 -66.890625 "/></g></g></g><g fill="#c8f31d" fill-opacity="1"><g transform="translate(261.101747, 71.424057)"><g><path d="M 0.640625 -52.546875 L 0.640625 -65.6875 L 46.8125 -65.6875 L 46.8125 -52.546875 L 31.21875 -52.546875 L 31.21875 0 L 16.25 0 L 16.25 -52.546875 Z M 0.640625 -52.546875 "/></g></g></g><g fill="#c8f31d" fill-opacity="1"><g transform="translate(301.948542, 71.424057)"><g><path d="M 13.859375 -17.046875 C 16.398438 -17.046875 18.5625 -16.15625 20.34375 -14.375 C 22.125 -12.59375 23.015625 -10.429688 23.015625 -7.890625 C 23.015625 -5.390625 22.125 -3.25 20.34375 -1.46875 C 18.5625 0.300781 16.398438 1.1875 13.859375 1.1875 C 11.359375 1.1875 9.21875 0.300781 7.4375 -1.46875 C 5.664062 -3.25 4.78125 -5.390625 4.78125 -7.890625 C 4.78125 -10.429688 5.664062 -12.59375 7.4375 -14.375 C 9.21875 -16.15625 11.359375 -17.046875 13.859375 -17.046875 Z M 13.859375 -17.046875 "/></g></g></g></g></g></svg>
