<svg xmlns="http://www.w3.org/2000/svg" xmlns:xlink="http://www.w3.org/1999/xlink" width="600" zoomAndPan="magnify" viewBox="0 0 450 449.999984" height="600" preserveAspectRatio="xMidYMid meet" version="1.0"><defs><g/><clipPath id="c24b3b649c"><rect x="0" width="248" y="0" height="100"/></clipPath><clipPath id="c9254d54c4"><path d="M 155 147 L 204 147 L 204 214 L 155 214 Z M 155 147 " clip-rule="nonzero"/></clipPath><clipPath id="05e330239a"><path d="M 154.394531 195.261719 L 177.984375 137.652344 L 225.875 157.265625 L 202.285156 214.871094 Z M 154.394531 195.261719 " clip-rule="nonzero"/></clipPath><clipPath id="c8e84b0683"><path d="M 154.394531 195.261719 L 177.984375 137.652344 L 225.875 157.265625 L 202.285156 214.871094 Z M 154.394531 195.261719 " clip-rule="nonzero"/></clipPath><clipPath id="bd58c5cbcd"><path d="M 168 159 L 199 159 L 199 201 L 168 201 Z M 168 159 " clip-rule="nonzero"/></clipPath><clipPath id="ed7f8837f8"><path d="M 168.023438 189.152344 L 182.515625 153.753906 L 212.363281 165.976562 L 197.867188 201.371094 Z M 168.023438 189.152344 " clip-rule="nonzero"/></clipPath><clipPath id="984e4b1113"><path d="M 168.023438 189.152344 L 182.515625 153.753906 L 212.363281 165.976562 L 197.867188 201.371094 Z M 168.023438 189.152344 " clip-rule="nonzero"/></clipPath><clipPath id="77ea24eb52"><rect x="0" width="329" y="0" height="101"/></clipPath></defs><rect x="-45" width="540" fill="#ffffff" y="-44.999998" height="539.99998" fill-opacity="1"/><rect x="-45" width="540" fill="#012f12" y="-44.999998" height="539.99998" fill-opacity="1"/><g transform="matrix(1, 0, 0, 1, 96, 141)"><g clip-path="url(#c24b3b649c)"><g fill="#ffffff" fill-opacity="1"><g transform="translate(1.246396, 70.976362)"><g><path d="M 4.78125 -65.6875 L 28.265625 -65.6875 C 34.585938 -65.6875 39.738281 -64 43.71875 -60.625 C 47.695312 -57.257812 49.6875 -52.445312 49.6875 -46.1875 C 49.6875 -41.351562 48.476562 -37.300781 46.0625 -34.03125 C 43.644531 -30.769531 40.367188 -28.476562 36.234375 -27.15625 L 58.84375 0 L 39.8125 0 L 19.75 -25.953125 L 19.75 0 L 4.78125 0 Z M 19.75 -36.546875 L 21.5 -36.546875 C 22.875 -36.546875 24.039062 -36.570312 25 -36.625 C 25.957031 -36.675781 27.046875 -36.859375 28.265625 -37.171875 C 29.484375 -37.492188 30.460938 -37.945312 31.203125 -38.53125 C 31.953125 -39.125 32.59375 -39.976562 33.125 -41.09375 C 33.65625 -42.207031 33.921875 -43.554688 33.921875 -45.140625 C 33.921875 -46.734375 33.65625 -48.085938 33.125 -49.203125 C 32.59375 -50.316406 31.953125 -51.164062 31.203125 -51.75 C 30.460938 -52.332031 29.484375 -52.785156 28.265625 -53.109375 C 27.046875 -53.429688 25.957031 -53.617188 25 -53.671875 C 24.039062 -53.722656 22.875 -53.75 21.5 -53.75 L 19.75 -53.75 Z M 19.75 -36.546875 "/></g></g></g><g fill="#ffffff" fill-opacity="1"><g transform="translate(56.826364, 70.976362)"><g/></g></g><g fill="#ffffff" fill-opacity="1"><g transform="translate(77.130437, 70.976362)"><g/></g></g><g fill="#ffffff" fill-opacity="1"><g transform="translate(97.43451, 70.976362)"><g/></g></g><g fill="#ffffff" fill-opacity="1"><g transform="translate(117.739397, 70.976362)"><g><path d="M 19.75 -40.765625 L 19.75 0 L 4.78125 0 L 4.78125 -65.6875 L 19.75 -65.6875 L 45.859375 -24.921875 L 46.015625 -24.921875 L 46.015625 -65.6875 L 61 -65.6875 L 61 0 L 46.015625 0 L 19.90625 -40.765625 Z M 19.75 -40.765625 "/></g></g></g><g fill="#ffffff" fill-opacity="1"><g transform="translate(182.075639, 70.976362)"><g><path d="M 64.578125 0 L 43.953125 0 L 19.75 -27.875 L 19.75 0 L 4.78125 0 L 4.78125 -65.6875 L 19.75 -65.6875 L 19.75 -38.859375 L 42.28125 -65.6875 L 60.4375 -65.6875 L 34 -34.5625 Z M 64.578125 0 "/></g></g></g></g></g><g clip-path="url(#c9254d54c4)"><g clip-path="url(#05e330239a)"><g clip-path="url(#c8e84b0683)"><path fill="#d5de22" d="M 198.472656 148.472656 L 156.628906 191.085938 C 156.167969 191.554688 155.882812 192.109375 155.765625 192.757812 C 155.652344 193.402344 155.726562 194.027344 155.996094 194.625 C 156.265625 195.222656 156.679688 195.695312 157.238281 196.039062 C 157.800781 196.382812 158.40625 196.535156 159.0625 196.503906 L 179.820312 195.460938 C 180.664062 195.417969 181.472656 195.558594 182.253906 195.875 C 183.035156 196.195312 183.710938 196.667969 184.28125 197.285156 L 198.34375 212.589844 C 198.789062 213.074219 199.332031 213.390625 199.96875 213.539062 C 200.609375 213.6875 201.234375 213.640625 201.847656 213.402344 C 202.460938 213.164062 202.953125 212.773438 203.320312 212.230469 C 203.691406 211.691406 203.878906 211.089844 203.878906 210.433594 L 203.9375 150.710938 C 203.9375 150.0625 203.757812 149.46875 203.398438 148.929688 C 203.039062 148.394531 202.558594 148 201.957031 147.753906 C 201.359375 147.511719 200.742188 147.453125 200.105469 147.582031 C 199.472656 147.714844 198.929688 148.011719 198.472656 148.472656 Z M 198.472656 148.472656 " fill-opacity="1" fill-rule="nonzero"/></g></g></g><g clip-path="url(#bd58c5cbcd)"><g clip-path="url(#ed7f8837f8)"><g clip-path="url(#984e4b1113)"><path fill="#012f12" d="M 195.160156 160.34375 L 169.398438 186.578125 C 169.113281 186.867188 168.9375 187.210938 168.867188 187.609375 C 168.796875 188.007812 168.84375 188.390625 169.007812 188.757812 C 169.175781 189.125 169.429688 189.417969 169.773438 189.628906 C 170.117188 189.839844 170.492188 189.933594 170.894531 189.914062 L 183.675781 189.273438 C 184.195312 189.246094 184.691406 189.332031 185.171875 189.527344 C 185.652344 189.726562 186.070312 190.015625 186.421875 190.394531 L 195.078125 199.816406 C 195.351562 200.117188 195.6875 200.308594 196.082031 200.402344 C 196.472656 200.492188 196.859375 200.464844 197.234375 200.316406 C 197.613281 200.171875 197.914062 199.929688 198.144531 199.597656 C 198.371094 199.261719 198.484375 198.894531 198.484375 198.488281 L 198.523438 161.722656 C 198.523438 161.324219 198.414062 160.957031 198.191406 160.628906 C 197.96875 160.296875 197.671875 160.054688 197.304688 159.902344 C 196.933594 159.753906 196.554688 159.71875 196.164062 159.796875 C 195.773438 159.878906 195.4375 160.0625 195.160156 160.34375 Z M 195.160156 160.34375 " fill-opacity="1" fill-rule="nonzero"/></g></g></g><g transform="matrix(1, 0, 0, 1, 66, 216)"><g clip-path="url(#77ea24eb52)"><g fill="#d5de22" fill-opacity="1"><g transform="translate(0.41288, 71.424057)"><g><path d="M 42.765625 -65.6875 L 42.765625 -52.546875 L 19.75 -52.546875 L 19.75 -39.5 L 41 -39.5 L 41 -26.359375 L 19.75 -26.359375 L 19.75 0 L 4.78125 0 L 4.78125 -65.6875 Z M 42.765625 -65.6875 "/></g></g></g><g fill="#d5de22" fill-opacity="1"><g transform="translate(44.126462, 71.424057)"><g><path d="M 1.828125 -32.890625 C 1.828125 -42.390625 5.066406 -50.429688 11.546875 -57.015625 C 18.023438 -63.597656 25.828125 -66.890625 34.953125 -66.890625 C 44.140625 -66.890625 51.941406 -63.609375 58.359375 -57.046875 C 64.785156 -50.492188 68 -42.441406 68 -32.890625 C 68 -23.273438 64.835938 -15.191406 58.515625 -8.640625 C 52.203125 -2.085938 44.347656 1.1875 34.953125 1.1875 C 25.347656 1.1875 17.425781 -2.0625 11.1875 -8.5625 C 4.945312 -15.0625 1.828125 -23.171875 1.828125 -32.890625 Z M 18 -32.890625 C 18 -29.429688 18.53125 -26.28125 19.59375 -23.4375 C 20.65625 -20.601562 22.507812 -18.203125 25.15625 -16.234375 C 27.8125 -14.273438 31.078125 -13.296875 34.953125 -13.296875 C 40.523438 -13.296875 44.726562 -15.207031 47.5625 -19.03125 C 50.40625 -22.851562 51.828125 -27.472656 51.828125 -32.890625 C 51.828125 -38.242188 50.378906 -42.84375 47.484375 -46.6875 C 44.597656 -50.539062 40.421875 -52.46875 34.953125 -52.46875 C 29.535156 -52.46875 25.351562 -50.539062 22.40625 -46.6875 C 19.46875 -42.84375 18 -38.242188 18 -32.890625 Z M 18 -32.890625 "/></g></g></g><g fill="#d5de22" fill-opacity="1"><g transform="translate(112.523538, 71.424057)"><g><path d="M 4.78125 -65.6875 L 28.265625 -65.6875 C 34.585938 -65.6875 39.738281 -64 43.71875 -60.625 C 47.695312 -57.257812 49.6875 -52.445312 49.6875 -46.1875 C 49.6875 -41.351562 48.476562 -37.300781 46.0625 -34.03125 C 43.644531 -30.769531 40.367188 -28.476562 36.234375 -27.15625 L 58.84375 0 L 39.8125 0 L 19.75 -25.953125 L 19.75 0 L 4.78125 0 Z M 19.75 -36.546875 L 21.5 -36.546875 C 22.875 -36.546875 24.039062 -36.570312 25 -36.625 C 25.957031 -36.675781 27.046875 -36.859375 28.265625 -37.171875 C 29.484375 -37.492188 30.460938 -37.945312 31.203125 -38.53125 C 31.953125 -39.125 32.59375 -39.976562 33.125 -41.09375 C 33.65625 -42.207031 33.921875 -43.554688 33.921875 -45.140625 C 33.921875 -46.734375 33.65625 -48.085938 33.125 -49.203125 C 32.59375 -50.316406 31.953125 -51.164062 31.203125 -51.75 C 30.460938 -52.332031 29.484375 -52.785156 28.265625 -53.109375 C 27.046875 -53.429688 25.957031 -53.617188 25 -53.671875 C 24.039062 -53.722656 22.875 -53.75 21.5 -53.75 L 19.75 -53.75 Z M 19.75 -36.546875 "/></g></g></g><g fill="#d5de22" fill-opacity="1"><g transform="translate(168.101115, 71.424057)"><g><path d="M 42.359375 -65.6875 L 42.359375 -52.546875 L 19.75 -52.546875 L 19.75 -39.5 L 41.40625 -39.5 L 41.40625 -26.359375 L 19.75 -26.359375 L 19.75 -13.140625 L 42.359375 -13.140625 L 42.359375 0 L 4.78125 0 L 4.78125 -65.6875 Z M 42.359375 -65.6875 "/></g></g></g><g fill="#d5de22" fill-opacity="1"><g transform="translate(212.849818, 71.424057)"><g><path d="M 28.984375 -66.890625 C 32.535156 -66.890625 36.007812 -66.367188 39.40625 -65.328125 C 42.8125 -64.296875 45.335938 -63.273438 46.984375 -62.265625 L 49.375 -60.671875 L 43.3125 -48.734375 C 42.832031 -49.046875 42.164062 -49.453125 41.3125 -49.953125 C 40.46875 -50.460938 38.878906 -51.140625 36.546875 -51.984375 C 34.210938 -52.835938 32.035156 -53.265625 30.015625 -53.265625 C 27.523438 -53.265625 25.601562 -52.734375 24.25 -51.671875 C 22.894531 -50.609375 22.21875 -49.175781 22.21875 -47.375 C 22.21875 -46.46875 22.535156 -45.628906 23.171875 -44.859375 C 23.804688 -44.097656 24.894531 -43.28125 26.4375 -42.40625 C 27.976562 -41.53125 29.332031 -40.828125 30.5 -40.296875 C 31.664062 -39.765625 33.46875 -38.96875 35.90625 -37.90625 C 40.15625 -36.09375 43.78125 -33.632812 46.78125 -30.53125 C 49.78125 -27.425781 51.28125 -23.910156 51.28125 -19.984375 C 51.28125 -16.210938 50.601562 -12.921875 49.25 -10.109375 C 47.894531 -7.296875 46.035156 -5.09375 43.671875 -3.5 C 41.304688 -1.90625 38.691406 -0.726562 35.828125 0.03125 C 32.960938 0.800781 29.859375 1.1875 26.515625 1.1875 C 23.648438 1.1875 20.835938 0.894531 18.078125 0.3125 C 15.316406 -0.269531 13.003906 -1 11.140625 -1.875 C 9.285156 -2.75 7.613281 -3.609375 6.125 -4.453125 C 4.644531 -5.304688 3.554688 -6.023438 2.859375 -6.609375 L 1.828125 -7.484375 L 9.3125 -20.0625 C 9.945312 -19.53125 10.820312 -18.851562 11.9375 -18.03125 C 13.050781 -17.207031 15.03125 -16.101562 17.875 -14.71875 C 20.71875 -13.34375 23.226562 -12.65625 25.40625 -12.65625 C 31.71875 -12.65625 34.875 -14.804688 34.875 -19.109375 C 34.875 -20.015625 34.644531 -20.847656 34.1875 -21.609375 C 33.738281 -22.378906 32.941406 -23.148438 31.796875 -23.921875 C 30.660156 -24.691406 29.65625 -25.300781 28.78125 -25.75 C 27.90625 -26.207031 26.472656 -26.898438 24.484375 -27.828125 C 22.492188 -28.753906 21.019531 -29.457031 20.0625 -29.9375 C 16.082031 -31.90625 13.003906 -34.359375 10.828125 -37.296875 C 8.648438 -40.242188 7.5625 -43.414062 7.5625 -46.8125 C 7.5625 -52.707031 9.738281 -57.523438 14.09375 -61.265625 C 18.445312 -65.015625 23.410156 -66.890625 28.984375 -66.890625 Z M 28.984375 -66.890625 "/></g></g></g><g fill="#d5de22" fill-opacity="1"><g transform="translate(261.101747, 71.424057)"><g><path d="M 0.640625 -52.546875 L 0.640625 -65.6875 L 46.8125 -65.6875 L 46.8125 -52.546875 L 31.21875 -52.546875 L 31.21875 0 L 16.25 0 L 16.25 -52.546875 Z M 0.640625 -52.546875 "/></g></g></g><g fill="#d5de22" fill-opacity="1"><g transform="translate(301.948542, 71.424057)"><g><path d="M 13.859375 -17.046875 C 16.398438 -17.046875 18.5625 -16.15625 20.34375 -14.375 C 22.125 -12.59375 23.015625 -10.429688 23.015625 -7.890625 C 23.015625 -5.390625 22.125 -3.25 20.34375 -1.46875 C 18.5625 0.300781 16.398438 1.1875 13.859375 1.1875 C 11.359375 1.1875 9.21875 0.300781 7.4375 -1.46875 C 5.664062 -3.25 4.78125 -5.390625 4.78125 -7.890625 C 4.78125 -10.429688 5.664062 -12.59375 7.4375 -14.375 C 9.21875 -16.15625 11.359375 -17.046875 13.859375 -17.046875 Z M 13.859375 -17.046875 "/></g></g></g></g></g></svg>